<svg width="82" height="95" viewBox="0 0 82 95" fill="none" xmlns="http://www.w3.org/2000/svg">
<path d="M0 57.0531C0 52.8073 2.45461 39.8044 20.0349 39.8044C37.6152 39.8044 39.8045 52.741 39.8045 57.0531C39.8045 61.3651 39.8045 91.5503 39.8045 91.5503H0C0 91.5503 0 61.2988 0 57.0531Z" fill="#101515"/>
<path d="M56.9487 0.132874H39.8042V59.5502C39.8042 59.5502 39.8042 94.9619 79.6087 94.9619V80.837C79.6087 59.5502 56.9487 48.8736 56.9487 48.8736C56.9487 48.8736 79.6087 45.5579 79.6087 24.5033C79.6087 3.44857 59.5074 0.132874 56.9487 0.132874Z" fill="#101515"/>
<circle cx="19.9022" cy="19.9022" r="19.9022" fill="#43B89F"/>
</svg>
